<svg width="29" height="23" viewBox="0 0 29 23" fill="none" xmlns="http://www.w3.org/2000/svg">
<path d="M27.9643 0H1.03571C0.462835 0 0 0.462835 0 1.03571V21.75C0 22.3229 0.462835 22.7857 1.03571 22.7857H27.9643C28.5372 22.7857 29 22.3229 29 21.75V1.03571C29 0.462835 28.5372 0 27.9643 0ZM26.6696 3.58616V20.4554H2.33036V3.58616L1.43705 2.89029L2.70904 1.2558L4.09431 2.33359H24.9089L26.2942 1.2558L27.5662 2.89029L26.6696 3.58616V3.58616ZM24.9089 2.33036L14.5 10.4219L4.09107 2.33036L2.7058 1.25257L1.43382 2.88705L2.32712 3.58292L13.3834 12.1794C13.7013 12.4264 14.0925 12.5605 14.4951 12.5605C14.8978 12.5605 15.289 12.4264 15.6069 12.1794L26.6696 3.58616L27.5629 2.89029L26.291 1.2558L24.9089 2.33036Z" fill="black"/>
</svg>
